<?xml version="1.0" standalone="no"?>
<!DOCTYPE svg PUBLIC "-//W3C//DTD SVG 20010904//EN"
 "http://www.w3.org/TR/2001/REC-SVG-20010904/DTD/svg10.dtd">
<svg version="1.0" xmlns="http://www.w3.org/2000/svg"
 width="280.000000pt" height="280.000000pt" viewBox="0 0 280.000000 280.000000"
 preserveAspectRatio="xMidYMid meet">
<metadata>
Created by potrace 1.11, written by Peter Selinger 2001-2013
</metadata>
<g transform="translate(0.000000,280.000000) scale(0.100000,-0.100000)"
fill="#000000" stroke="none">
<path d="M1355 1719 c-4 -6 -13 -8 -21 -5 -8 3 -14 2 -14 -3 0 -9 -51 -35 -62
-33 -5 1 -8 -2 -8 -7 0 -5 -13 -23 -30 -39 -16 -16 -31 -36 -32 -43 -2 -7 -9
-20 -16 -27 -7 -8 -10 -18 -7 -23 4 -5 2 -9 -2 -9 -5 0 -9 -27 -10 -60 -1 -40
2 -60 10 -60 7 0 6 -4 -3 -10 -10 -6 -11 -10 -2 -10 6 0 12 -8 12 -17 0 -29
46 -98 55 -83 4 7 4 15 -1 19 -17 12 -36 59 -38 90 0 22 -5 30 -15 26 -10 -4
-11 -2 -4 7 6 7 9 23 7 36 -2 13 0 21 4 18 5 -3 8 8 7 24 -1 17 2 30 7 30 4 0
7 3 6 8 -3 11 23 55 46 76 12 10 20 23 18 28 -1 5 2 7 7 4 5 -4 16 1 25 9 8 9
19 16 23 17 4 0 19 4 31 9 13 5 27 7 31 5 4 -3 13 -1 21 4 8 5 22 5 32 -1 11
-6 18 -6 18 0 0 5 20 3 45 -4 27 -9 47 -10 50 -4 7 10 -35 30 -47 22 -5 -2 -8
1 -8 6 0 14 -127 14 -135 0z"/>
<path d="M1556 1693 c-10 -10 -7 -35 4 -28 6 3 10 1 10 -4 0 -6 7 -11 16 -11
8 0 13 -4 10 -8 -3 -5 5 -15 19 -22 15 -8 21 -18 18 -28 -4 -10 -2 -13 5 -8 7
4 12 1 12 -9 0 -9 4 -14 9 -11 5 3 9 -7 10 -22 0 -15 2 -51 4 -79 2 -29 0 -53
-4 -53 -4 0 -6 -8 -5 -17 3 -18 -21 -73 -33 -73 -10 0 -11 -39 0 -45 5 -4 9 0
9 8 0 8 7 18 16 21 8 3 12 10 9 16 -3 5 -1 10 5 10 7 0 10 6 7 14 -3 7 0 19 6
25 13 13 19 171 7 171 -4 0 -11 12 -14 26 -7 28 -110 137 -120 127z"/>
<path d="M54 1648 c-3 -4 1 -10 8 -13 8 -3 25 -23 38 -45 14 -22 28 -40 33
-40 4 0 5 -4 2 -10 -3 -5 -1 -10 4 -10 6 0 11 -7 11 -15 0 -8 10 -17 23 -20
27 -7 181 0 195 9 6 3 13 2 16 -3 4 -6 18 -6 36 -1 21 6 30 5 30 -3 0 -7 4 -6
10 3 7 11 10 11 10 2 0 -7 5 -10 12 -6 6 4 57 9 112 11 231 8 262 10 275 18
10 6 12 4 6 -4 -6 -10 -3 -11 14 -2 14 8 21 8 21 1 0 -7 6 -8 18 -1 13 7 23 6
30 -1 8 -8 12 -8 12 -2 0 6 26 10 65 10 37 -1 65 3 65 9 0 6 5 3 10 -5 7 -11
10 -11 10 -2 0 7 4 11 9 7 6 -3 15 3 21 14 7 14 7 22 -1 27 -10 6 -86 12 -196
17 -13 1 -23 5 -23 10 0 5 -6 4 -13 -2 -8 -6 -17 -8 -21 -4 -4 4 -33 8 -64 9
-31 1 -57 2 -57 3 0 1 -34 3 -75 6 -41 2 -120 7 -175 10 -55 4 -111 8 -125 9
-14 1 -30 5 -37 9 -6 4 -14 3 -18 -3 -4 -6 -11 -8 -16 -4 -6 3 -52 8 -102 10
-51 3 -109 6 -130 8 -21 1 -40 -1 -43 -6z"/>
<path d="M2696 1652 c-2 -4 -47 -7 -100 -7 -53 0 -96 -2 -96 -5 0 -3 -34 -5
-76 -5 -42 0 -78 -3 -81 -8 -2 -4 -13 -2 -25 4 -12 6 -18 7 -14 1 3 -6 -8 -11
-27 -11 -17 -1 -57 -3 -87 -4 -30 -1 -61 -6 -67 -10 -8 -5 -13 -3 -13 5 0 8
-3 9 -8 3 -4 -5 -41 -10 -82 -10 -41 0 -81 -4 -87 -9 -8 -5 -19 -4 -28 4 -8 7
-15 8 -15 3 0 -5 -19 -11 -42 -12 -24 -2 -59 -4 -78 -6 -19 -2 -45 -4 -57 -4
-29 -1 -29 -18 -1 -43 17 -14 23 -16 30 -6 4 7 8 9 8 3 0 -6 34 -10 83 -10 45
0 85 -4 89 -10 5 -6 8 -6 8 2 0 9 7 10 25 3 17 -6 25 -6 25 1 0 6 6 7 13 2 6
-4 44 -9 82 -10 98 -3 253 -11 298 -15 20 -2 37 -1 37 2 0 3 9 6 20 6 11 0 20
-3 20 -6 0 -3 54 -6 120 -7 66 -1 120 2 120 7 0 5 6 15 13 22 8 7 26 34 42 58
15 25 32 48 38 51 5 4 6 12 3 18 -9 14 -36 14 -36 0 0 -6 -5 -7 -12 -2 -18 10
-37 13 -42 5z"/>
<path d="M1390 1621 c0 -30 -1 -34 -12 -54 -5 -10 -12 -16 -15 -13 -3 2 -14
-4 -26 -14 -11 -11 -17 -23 -13 -27 4 -4 11 -2 15 6 10 16 22 16 32 -1 7 -10
9 -10 9 0 0 6 5 12 11 12 6 0 9 -7 6 -14 -4 -10 -1 -13 9 -9 20 8 17 24 -6 30
-18 5 -18 7 -3 29 12 19 19 22 29 13 8 -6 14 -8 14 -3 0 5 5 2 10 -6 5 -8 14
-16 20 -16 5 -1 14 -2 20 -3 5 0 7 -8 4 -16 -5 -11 -10 -13 -19 -5 -9 8 -15 8
-20 0 -3 -6 -10 -8 -15 -5 -4 3 -11 -2 -14 -11 -9 -24 -7 -29 6 -16 7 7 24 12
39 12 23 0 26 -4 22 -21 -4 -13 -8 -17 -13 -9 -8 13 -16 13 -43 -2 -13 -6 -23
-6 -33 3 -8 6 -17 9 -20 6 -9 -9 6 -28 17 -22 9 6 11 -4 11 -45 0 -53 -2 -62
-16 -57 -8 3 -17 1 -20 -6 -3 -9 -5 -9 -5 1 -1 6 -8 12 -16 12 -8 0 -15 -6
-15 -12 0 -9 -3 -8 -9 2 -6 8 -7 18 -5 22 3 5 0 7 -8 6 -8 -2 -12 5 -10 20 2
12 -1 22 -6 22 -15 0 -5 -51 13 -69 18 -18 138 -25 127 -6 -3 5 1 5 9 -1 8 -7
30 -11 49 -10 19 2 41 -2 48 -7 8 -6 12 -5 12 3 0 8 3 10 7 7 8 -8 -26 -47
-41 -47 -6 0 -5 5 2 12 18 18 14 32 -5 17 -9 -8 -18 -13 -20 -11 -14 10 -8 -2
10 -21 12 -13 28 -21 35 -19 7 3 11 7 8 10 -3 2 9 18 25 33 17 16 26 29 19 29
-6 0 -8 5 -3 13 11 17 11 30 0 45 -8 10 -14 9 -28 -4 -10 -9 -16 -20 -14 -25
3 -4 2 -10 -3 -13 -4 -2 -8 6 -8 20 0 13 3 24 8 24 4 0 4 7 1 17 -4 9 -2 14 3
10 6 -3 11 8 12 24 2 19 -2 28 -8 24 -5 -3 -10 -15 -10 -26 0 -10 -4 -19 -9
-19 -4 0 -7 -11 -6 -25 2 -14 -1 -25 -6 -25 -5 0 -8 -6 -6 -12 1 -9 -11 -12
-41 -11 -49 1 -63 10 -42 23 8 6 10 10 4 10 -13 0 -12 53 1 61 6 4 21 6 35 4
14 -1 28 3 33 9 5 8 10 7 16 -2 6 -11 10 -10 15 3 5 14 2 16 -19 13 -27 -6
-32 3 -12 21 10 8 17 7 25 -1 9 -9 12 -9 12 1 0 7 6 11 14 8 16 -6 30 19 16
28 -6 4 -10 1 -10 -6 0 -9 -3 -9 -14 0 -11 10 -19 7 -36 -11 -20 -21 -22 -21
-17 -3 8 26 -20 66 -32 46 -7 -11 -10 -9 -16 8 -3 12 -11 19 -16 16 -5 -4 -9
-1 -9 4 0 6 -7 11 -16 11 -8 0 -13 4 -9 9 3 5 1 12 -5 16 -5 3 -10 -3 -10 -14z"/>
<path d="M1295 1511 c-3 -5 -1 -12 5 -16 5 -3 10 -11 10 -17 0 -7 -6 -6 -15 2
-8 7 -15 11 -16 9 -6 -31 -6 -40 2 -45 5 -3 8 0 7 8 -2 9 9 13 40 12 28 0 42
4 42 13 0 7 -6 13 -12 14 -7 1 -22 2 -33 3 -11 0 -19 7 -17 14 2 14 -4 16 -13
3z"/>
<path d="M1784 1479 c-3 -6 -17 -9 -30 -6 -14 2 -27 0 -30 -5 -3 -4 -9 -6 -14
-3 -4 3 -6 -3 -3 -13 3 -14 15 -19 46 -21 23 -1 56 -4 72 -6 49 -6 147 -16
195 -21 25 -2 61 -6 80 -8 19 -3 63 -7 97 -9 34 -3 66 -8 72 -12 6 -3 11 0 11
7 0 9 2 10 8 2 4 -7 39 -14 78 -16 38 -2 76 -8 84 -13 9 -6 11 -4 5 4 -5 10
-3 11 11 4 32 -14 94 -2 94 19 0 6 3 8 7 5 3 -4 16 4 28 18 13 13 25 22 27 19
3 -2 5 2 5 9 0 9 -22 13 -81 14 -160 1 -221 6 -235 17 -11 8 -13 8 -7 -1 5 -9
1 -13 -13 -13 -11 0 -23 5 -26 10 -4 6 -11 8 -16 4 -14 -8 -59 -12 -59 -5 0 3
-55 6 -123 6 -70 0 -125 4 -129 10 -5 6 -8 5 -8 -3 0 -7 -4 -11 -9 -8 -5 3
-36 6 -70 7 -33 1 -58 6 -55 10 3 5 3 9 0 9 -3 0 -8 -5 -12 -11z"/>
<path d="M1036 1473 c-1 -2 -71 -4 -154 -6 -83 -2 -154 -6 -158 -9 -3 -4 -16
-3 -28 2 -13 4 -28 5 -34 1 -15 -9 -54 -7 -72 4 -9 5 -11 4 -6 -3 4 -7 3 -12
-3 -12 -5 0 -13 5 -16 10 -4 7 -11 7 -18 2 -11 -9 -81 -14 -192 -14 -27 0 -56
-5 -64 -11 -11 -9 -13 -9 -8 0 5 8 -2 11 -23 9 -29 -2 -56 -16 -31 -16 7 0 9
-4 6 -10 -3 -5 1 -10 9 -10 9 0 25 -9 35 -19 32 -32 56 -42 71 -28 10 9 11 9
6 -1 -6 -9 -1 -11 18 -8 14 3 30 7 35 10 5 4 12 2 16 -4 4 -6 12 -7 18 -3 16
10 30 12 99 15 31 2 55 5 53 8 -2 3 20 7 48 8 69 4 130 9 194 16 28 4 75 8
103 10 28 2 53 6 56 8 2 3 18 4 34 2 19 -2 30 1 30 9 0 8 4 7 10 -3 8 -12 10
-12 10 -1 0 11 3 11 15 1 10 -9 15 -9 15 -1 0 6 7 11 15 11 16 0 19 9 7 25 -6
9 -88 16 -96 8z"/>
<path d="M1080 1401 c-8 -4 -24 -7 -35 -7 -11 1 -23 -3 -27 -9 -5 -6 -8 -5 -8
3 0 10 -5 10 -20 2 -11 -6 -20 -8 -20 -5 0 3 -10 1 -21 -6 -16 -8 -20 -8 -14
1 5 9 3 9 -11 2 -11 -5 -27 -8 -36 -7 -10 2 -20 -1 -23 -6 -3 -4 -16 -4 -30 1
-17 6 -27 5 -36 -6 -8 -10 -15 -11 -24 -4 -6 5 -14 7 -17 5 -5 -5 -58 -12
-145 -20 -22 -1 -51 -6 -63 -10 -17 -6 -21 -4 -14 6 6 12 5 12 -9 0 -9 -7 -17
-10 -17 -6 0 4 -6 3 -12 -2 -7 -5 -32 -9 -55 -8 -24 0 -43 -2 -43 -5 1 -13 18
-27 52 -43 20 -10 44 -25 53 -34 18 -17 75 -26 75 -11 0 5 4 7 9 4 4 -3 23 -1
42 4 43 13 89 23 112 24 9 0 17 4 17 8 0 5 11 6 25 4 14 -3 25 0 25 6 0 5 6 8
14 5 8 -3 17 -3 20 1 4 3 12 7 19 8 43 7 76 15 104 23 17 5 34 7 37 3 3 -3 6
-1 6 5 0 5 6 10 13 10 6 0 28 4 47 8 19 5 45 9 58 9 14 1 20 6 17 14 -3 8 -5
21 -6 30 0 11 -3 12 -6 5 -3 -9 -10 -10 -22 -4 -9 5 -23 6 -31 2z"/>
<path d="M1239 1409 c-6 -30 -5 -36 7 -36 7 0 10 5 7 10 -3 6 -1 7 5 4 15 -10
2 -47 -17 -48 -13 0 -14 -2 -1 -6 17 -7 40 -35 35 -43 -2 -3 5 -7 16 -7 24 -2
24 9 -1 32 -12 11 -17 23 -12 29 14 19 8 38 -15 54 -13 8 -23 13 -24 11z"/>
<path d="M1711 1392 c-10 -18 2 -52 14 -40 3 3 37 -2 75 -12 38 -10 71 -15 74
-12 4 3 6 1 6 -4 0 -5 12 -11 26 -12 14 -1 62 -11 106 -22 45 -11 83 -18 86
-15 3 2 14 -1 25 -6 11 -6 34 -13 51 -16 17 -3 34 -10 38 -16 5 -8 8 -7 8 3 0
9 3 11 8 5 16 -23 95 -24 119 -3 10 9 25 18 33 20 8 2 22 11 31 20 9 10 19 15
23 11 3 -3 6 3 6 14 0 16 -6 19 -27 18 -16 -1 -34 2 -40 8 -9 6 -13 6 -13 -2
0 -7 -5 -9 -10 -6 -14 9 -150 27 -210 28 -8 0 -21 4 -27 10 -9 6 -13 6 -13 -2
0 -7 -5 -9 -12 -4 -7 4 -22 8 -33 8 -11 0 -26 4 -32 8 -7 5 -13 4 -13 -1 0
-10 -49 -4 -65 9 -6 4 -17 4 -25 -1 -8 -5 -19 -6 -25 -2 -13 8 -17 9 -61 11
-21 0 -33 5 -29 11 3 6 1 10 -4 10 -6 0 -11 -4 -11 -8 0 -9 -42 -8 -58 1 -6 4
-15 -1 -21 -11z"/>
<path d="M1294 1339 c-4 -7 -3 -9 3 -6 6 4 14 -5 18 -20 5 -21 8 -24 16 -12 5
7 9 19 9 24 0 6 -5 3 -10 -5 -8 -13 -10 -13 -10 2 0 21 -16 32 -26 17z"/>
<path d="M1130 1332 c0 -4 -12 -8 -27 -7 -16 0 -30 -3 -33 -7 -3 -4 -17 -9
-30 -11 -62 -12 -166 -40 -177 -49 -9 -7 -13 -7 -13 1 0 8 -8 6 -23 -4 -13 -8
-27 -12 -30 -8 -4 3 -7 2 -7 -4 0 -6 -11 -9 -25 -8 -14 2 -25 0 -25 -4 0 -4
-8 -7 -17 -8 -28 -2 -52 -8 -59 -15 -3 -4 -12 -4 -19 -2 -7 3 -16 -1 -21 -8
-4 -7 -4 -10 1 -6 4 4 17 1 29 -7 11 -8 33 -15 48 -15 15 0 30 -4 33 -10 9
-15 31 -12 74 8 21 10 47 18 59 17 12 -1 19 2 16 7 -5 7 18 12 39 9 4 0 7 4 7
10 0 6 9 9 20 6 10 -3 20 -1 22 4 2 5 14 11 27 14 14 2 28 10 32 16 4 6 12 8
18 5 6 -4 11 -2 11 3 0 6 3 10 8 9 4 -1 27 5 51 12 46 15 63 36 40 51 -18 11
-29 11 -29 1z"/>
<path d="M1705 1330 c-3 -6 -11 -8 -16 -5 -5 4 -9 -1 -9 -9 0 -8 10 -18 23
-22 12 -5 24 -9 27 -10 3 -1 15 -5 28 -9 12 -4 22 -11 22 -16 0 -5 7 -6 15 -3
8 4 15 1 15 -5 0 -6 7 -8 15 -5 8 4 15 1 15 -5 0 -7 6 -11 13 -9 6 1 32 -6 57
-16 25 -11 54 -21 65 -23 11 -2 39 -13 63 -24 28 -13 51 -17 65 -13 12 4 29 9
37 10 43 8 75 20 77 29 1 6 -6 11 -15 12 -18 1 -35 5 -89 22 -17 5 -34 7 -37
3 -3 -3 -6 0 -6 6 0 7 -3 11 -7 11 -22 -4 -54 2 -50 9 3 4 -11 7 -31 6 -21 0
-42 3 -48 8 -6 4 -19 9 -30 11 -10 1 -23 5 -29 8 -5 4 -20 5 -32 4 -12 -1 -20
2 -18 5 3 4 -7 8 -21 8 -15 0 -29 4 -33 9 -3 5 -13 8 -21 8 -8 -1 -20 3 -27 7
-6 5 -14 5 -18 -2z"/>
<path d="M1237 1293 c-13 -13 -7 -32 13 -38 11 -3 20 -13 20 -20 0 -9 6 -12
17 -8 12 5 14 3 8 -7 -5 -9 -4 -11 3 -6 7 4 12 3 12 -1 0 -10 45 -11 54 -2 3
3 -12 11 -34 18 -22 6 -40 15 -40 20 0 4 -12 13 -26 19 -14 7 -22 17 -19 22 7
11 2 13 -8 3z"/>
<path d="M1460 1289 c0 -5 -4 -8 -9 -4 -5 3 -12 1 -15 -4 -4 -5 2 -8 11 -7 15
3 33 26 19 26 -3 0 -6 -5 -6 -11z"/>
<path d="M1410 1282 c0 -6 -8 -13 -18 -16 -10 -4 -19 -12 -19 -20 0 -8 8 -11
19 -8 10 2 18 0 18 -4 0 -13 50 -11 50 1 0 6 7 1 15 -9 12 -16 15 -17 15 -4 0
11 6 15 20 11 22 -6 27 11 8 24 -19 11 -37 12 -44 2 -3 -5 -10 -7 -15 -4 -5 4
-9 2 -9 -3 0 -5 -11 -7 -25 -4 -21 3 -23 7 -14 18 7 8 9 17 5 21 -3 3 -6 1 -6
-5z"/>
<path d="M1590 1276 c0 -9 -8 -20 -17 -23 -10 -4 -20 -9 -23 -13 -10 -14 -70
-38 -75 -31 -5 9 -48 7 -64 -3 -5 -4 -13 -1 -17 5 -5 8 -3 9 6 4 9 -6 11 -4 5
4 -5 9 -13 7 -31 -10 -13 -12 -24 -23 -24 -24 0 -7 153 6 168 14 11 6 22 7 26
4 3 -3 6 -2 6 4 0 9 49 38 61 35 3 0 6 8 5 20 -1 25 -26 38 -26 14z"/>
<path d="M1160 1261 c-8 -6 -18 -7 -22 -5 -4 3 -8 0 -8 -6 0 -6 -4 -8 -10 -5
-5 3 -10 1 -10 -5 0 -6 -6 -10 -12 -9 -7 2 -31 -5 -52 -14 -22 -10 -51 -20
-64 -24 -13 -3 -40 -14 -60 -23 -20 -10 -39 -17 -42 -15 -3 2 -11 -3 -18 -11
-14 -15 -10 -16 46 -17 12 0 22 -3 22 -7 0 -4 6 -7 13 -8 6 -1 28 -5 47 -8 28
-4 39 -1 54 15 11 12 25 21 31 21 7 0 16 7 19 16 4 9 9 14 12 11 4 -3 13 1 21
9 8 8 19 11 25 8 6 -4 8 -2 4 4 -5 9 29 28 44 25 12 -3 9 42 -3 49 -15 10 -19
10 -37 -1z"/>
<path d="M1644 1253 c-13 -13 -14 -18 -3 -22 7 -2 18 -8 24 -13 46 -37 136
-97 130 -86 -4 7 2 3 12 -10 19 -23 52 -26 82 -8 11 7 12 6 6 -5 -8 -12 -6
-12 8 0 9 7 31 14 49 16 18 1 34 7 35 12 3 9 -7 14 -59 28 -5 2 -11 4 -15 5
-5 1 -11 2 -15 1 -5 0 -8 4 -8 9 0 6 -9 10 -19 10 -11 0 -23 5 -26 10 -4 6
-10 8 -15 5 -5 -3 -12 0 -15 6 -4 5 -13 8 -21 5 -8 -3 -14 -1 -14 4 0 6 -9 10
-20 10 -11 0 -20 4 -20 8 0 4 -10 8 -22 9 -11 1 -24 6 -27 10 -11 15 -30 13
-47 -4z"/>
</g>
</svg>
